<svg width="16" height="17" viewBox="0 0 16 17" fill="none" xmlns="http://www.w3.org/2000/svg">
<rect x="0.0351562" y="0.38208" width="15.908" height="15.908" rx="7.95402" fill="#1FCCC2"/>
<g opacity="0.5">
<path fill-rule="evenodd" clip-rule="evenodd" d="M9.42465 5.29132C9.65991 5.29132 9.89481 5.3245 10.1181 5.39944C11.4943 5.84686 11.9902 7.35688 11.576 8.67675C11.3411 9.35123 10.957 9.96679 10.4541 10.4698C9.73411 11.167 8.94405 11.7859 8.09359 12.3191L8.00038 12.3754L7.90344 12.3153C7.05 11.7859 6.25547 11.167 5.52879 10.466C5.02918 9.96306 4.64478 9.35123 4.40616 8.67675C3.98484 7.35688 4.48073 5.84686 5.87181 5.39161C5.97994 5.35433 6.09142 5.32823 6.20327 5.31369H6.24801C6.35278 5.2984 6.4568 5.29132 6.5612 5.29132H6.60221C6.83711 5.2984 7.06454 5.33942 7.28489 5.41436H7.30689C7.3218 5.42144 7.33299 5.42927 7.34045 5.43636C7.42285 5.46283 7.50077 5.49266 7.57534 5.53367L7.71702 5.59705C7.75126 5.61531 7.78968 5.64321 7.82289 5.66732C7.84394 5.6826 7.86288 5.69636 7.87734 5.70518C7.88343 5.70877 7.88961 5.71238 7.89584 5.71602C7.92781 5.73468 7.96112 5.75412 7.9892 5.77564C8.40343 5.4591 8.90639 5.28759 9.42465 5.29132ZM10.4165 7.97586C10.5693 7.97176 10.6998 7.84909 10.711 7.69213V7.64776C10.7222 7.1254 10.4056 6.65226 9.9243 6.46957C9.77143 6.417 9.60365 6.4994 9.54772 6.65599C9.49553 6.81259 9.57755 6.98409 9.73415 7.03965C9.97314 7.12913 10.1331 7.3644 10.1331 7.62502V7.63657C10.126 7.72195 10.1517 7.80435 10.2039 7.86774C10.2561 7.93112 10.3344 7.96803 10.4165 7.97586Z" fill="white"/>
</g>
</svg>
